<svg xmlns="http://www.w3.org/2000/svg" width="25" height="25" viewBox="0 0 25 25">
  <defs>
    <style>
      .cls-1 {
        fill: #1ea9f1;
        fill-rule: evenodd;
      }
    </style>
  </defs>
  <path id="y用户" class="cls-1" d="M3545.41,929.813a5.017,5.017,0,0,1-1.87-1.908,5.486,5.486,0,0,1,0-5.291,5.136,5.136,0,0,1,7.05-1.907,5.1,5.1,0,0,1,1.87,1.907,5.486,5.486,0,0,1,0,5.291,5.09,5.09,0,0,1-1.87,1.908A5.154,5.154,0,0,1,3545.41,929.813Zm8.9,2.748a5.509,5.509,0,0,1,2.69,4.757v1.723a1.942,1.942,0,0,1-.56,1.4,1.856,1.856,0,0,1-1.37.573h-14.14a1.856,1.856,0,0,1-1.37-.573,1.942,1.942,0,0,1-.56-1.4v-1.723a5.483,5.483,0,0,1,.72-2.747,5.391,5.391,0,0,1,1.97-2.01,5.193,5.193,0,0,1,2.69-.739h0.69a6.871,6.871,0,0,0,5.86,0h0.68A5.2,5.2,0,0,1,3554.31,932.561Z" transform="translate(-3535.5 -918)"/>
</svg>
