<svg xmlns="http://www.w3.org/2000/svg" width="30" height="30" fill="currentColor" viewBox="0 0 30 30">
  <path id="源头企业" class="cls-1"
    d="M1804.07,1391.21h-1.33v-8.92a0.988,0.988,0,0,0-.4-0.83l-6.38-4.26V1368a1.237,1.237,0,0,0-.4-0.82,0.857,0.857,0,0,0-.8-0.14l-11.84,3.71a1.032,1.032,0,0,0-.66.96v19.36h-1.33a0.966,0.966,0,0,0,0,1.93h23.14a0.926,0.926,0,0,0,.93-0.92v-0.04a0.9,0.9,0,0,0-.93-0.83h0Zm-12.64-4.39h-4.92a0.96,0.96,0,0,1,0-1.92h4.92A0.96,0.96,0,0,1,1791.43,1386.82Zm0-4.67h-4.92a0.96,0.96,0,0,1,0-1.92h4.92A0.96,0.96,0,0,1,1791.43,1382.15Zm0-4.53h-4.92a0.966,0.966,0,0,1,0-1.93h4.92A0.965,0.965,0,0,1,1791.43,1377.62Zm7.72,9.34h-1.47a0.966,0.966,0,0,1,0-1.93h1.47a0.926,0.926,0,0,1,.93.92v0.04a1.147,1.147,0,0,1-.93.97h0Z"
    transform="translate(-1777.5 -1365)" />
</svg>
