<svg xmlns="http://www.w3.org/2000/svg" width="25" height="25" viewBox="0 0 25 25">
  <defs>
    <style>
      .cls-1 {
        fill: #1ea9f1;
        fill-rule: evenodd;
      }
    </style>
  </defs>
  <path id="退出" class="cls-1"
    d="M3894.94,920a3.371,3.371,0,0,1,3.51,2.926l0.01,0.206v3.132a0.674,0.674,0,0,1-.71.626,0.7,0.7,0,0,1-.69-0.513l-0.01-.113v-3.132a1.971,1.971,0,0,0-1.9-1.87l-0.21-.01h-8.01l4.75,0.843a1.358,1.358,0,0,1,1.15,1.32v14.122h2.11a2.028,2.028,0,0,0,2.1-1.7l0.01-.181v-3.132a0.671,0.671,0,0,1,.7-0.626,0.693,0.693,0,0,1,.7.513l0.01,0.113v3.132a3.311,3.311,0,0,1-3.29,3.125l-0.23.007h-2.11v0.868a1.376,1.376,0,0,1-1.41,1.34,1.5,1.5,0,0,1-.39-0.053l-7.02-1.94a1.349,1.349,0,0,1-1.01-1.289V923.13a3.309,3.309,0,0,1,3.28-3.124l0.23-.007h8.43Zm6.02,6.667,0.1,0.078,2.56,2.44a1.216,1.216,0,0,1,.1,1.655l-0.1.107-2.56,2.442a0.723,0.723,0,0,1-.99,0,0.643,0.643,0,0,1-.08-0.858l0.08-.1,1.78-1.7h-6.91a0.672,0.672,0,1,1,0-1.342h6.91l-1.78-1.7a0.642,0.642,0,0,1-.08-0.857l0.08-.092A0.718,0.718,0,0,1,3900.96,926.666Z"
    transform="translate(-3881 -918)" />
</svg>
