<svg width="1920" height="57" viewBox="0 0 1920 57" fill="none" xmlns="http://www.w3.org/2000/svg">
<path opacity="0.702" fill-rule="evenodd" clip-rule="evenodd" d="M1378.69 7V6H1924V7H1378.69ZM1368.64 7L1374.67 0H1378.69L1373.67 7H1368.64ZM1358.59 7L1364.62 0H1368.64L1363.62 7H1358.59ZM1348.54 7L1354.57 0H1358.59L1353.56 7H1348.54ZM1338.49 7L1344.52 0H1348.54L1343.51 7H1338.49ZM1328.43 7L1334.47 0H1338.49L1333.46 7H1328.43ZM1319.39 7L1325.42 0H1329.44L1324.41 7H1319.39ZM1244 7V0H1319.39L1314.36 7H1244Z" fill="url(#paint0_linear_99_15250)"/>
<path opacity="0.702" fill-rule="evenodd" clip-rule="evenodd" d="M764.999 7V6H1231V7H764.999ZM754.999 7L760.999 0H764.999L760 7H754.999ZM744.999 7L750.999 0H754.999L749.999 7H744.999ZM734.999 7L740.999 0H744.999L739.999 7H734.999ZM724.999 7L730.999 0H734.999L729.999 7H724.999ZM714.999 7L720.999 0H724.999L719.999 7H714.999ZM705.999 7L711.999 0H715.999L710.999 7H705.999ZM372.999 7V0H705.999L701 7H372.999Z" fill="url(#paint1_linear_99_15250)"/>
<path opacity="0.702" fill-rule="evenodd" clip-rule="evenodd" d="M562.873 27V26.143H940.999V27H562.873ZM554.759 27L559.627 21H562.873L558.816 27H554.759ZM546.645 27L551.514 21H554.759L550.702 27H546.645ZM538.531 27L543.399 21H546.645L542.588 27H538.531ZM530.416 27L535.285 21H538.531L534.473 27H530.416ZM522.302 27L527.17 21H530.416L526.359 27H522.302ZM514.999 27L519.868 21H523.114L519.056 27H514.999Z" fill="url(#paint2_linear_99_15250)"/>
<path opacity="0.6" fill-rule="evenodd" clip-rule="evenodd" d="M301.999 21L273.999 47H272.999H270.999H0V45H273.153L298.999 21H301.999Z" fill="url(#paint3_linear_99_15250)"/>
<path opacity="0.902" fill-rule="evenodd" clip-rule="evenodd" d="M507.999 24H357.435L354.572 27H498.999L496.436 28.001H353.618L341.368 40.838H335.157L351.224 24H342.511L321.891 44.339H315.681L336.301 24H328.584L302.049 50.173H295.838L322.373 24H313.574L284.672 53.491L282.999 56H282.213L282.206 56.007H275.996L276.003 56H0V53H278.942L310.302 21.002H313.996L313.999 21H512L507.999 24Z" fill="url(#paint4_linear_99_15250)"/>
<path fill-rule="evenodd" clip-rule="evenodd" d="M328.999 14H1437V16H326.999L328.999 14Z" fill="url(#paint5_linear_99_15250)"/>
<path opacity="0.678" fill-rule="evenodd" clip-rule="evenodd" d="M363.081 25H398.999L390.918 33.001H355L363.081 25Z" fill="url(#paint6_linear_99_15250)"/>
<path opacity="0.678" fill-rule="evenodd" clip-rule="evenodd" d="M314.693 30H339.999L334.305 36.001H308.999L314.693 30Z" fill="url(#paint7_linear_99_15250)"/>
<path opacity="0.678" fill-rule="evenodd" clip-rule="evenodd" d="M299.509 14H323.999L318.489 19H293.999L299.509 14Z" fill="url(#paint8_linear_99_15250)"/>
<path d="M269.489 21.344C269.039 20.864 268.559 20.264 267.989 19.635C264.661 19.755 251.227 20.174 247.149 20.534L246.399 17.415C247.748 17.176 248.258 16.966 248.858 16.486C250.807 15.017 254.885 10.759 256.744 8L259.413 9.499C257.404 12.228 254.196 15.737 252.396 17.116L265.261 16.696C263.792 15.136 262.352 13.697 261.393 12.768L263.462 10.968C265.561 12.888 269.249 16.636 271.408 19.125L269.489 21.344ZM220.026 22.573C218.736 20.564 216.398 17.176 215.198 15.586L217.417 13.907C218.707 15.676 220.956 18.795 222.245 20.714L220.026 22.573ZM234.15 13.877L236.489 15.556C235.469 17.205 233.07 20.744 231.631 22.513L229.322 20.774C230.731 19.035 233.19 15.556 234.15 13.877ZM227.373 35.377H224.314V26.381H212.679V23.383H224.314V12.858H214.179V9.859H237.479V12.858H227.373V23.383H238.918V26.381H227.373V35.377ZM191.854 32.229C196.682 32.319 201.36 32.229 206.128 32.019L205.498 34.808C200.79 35.018 196.262 35.108 191.554 35.018C187.086 34.928 184.717 34.058 183.128 30.97C182.678 32.529 182.138 34.028 181.418 35.738L178.959 34.778C180.729 30.7 181.538 28.33 181.538 22.453L184.057 22.603C184.057 24.133 183.997 25.542 183.877 26.802C184.297 28.39 184.927 29.621 185.766 30.429V20.984H180.069V18.345H185.137V14.747H181.028V12.138H185.137V8.659L187.866 8.81V12.138H191.344V14.747H187.866V18.345H191.374V19.095C193.623 17.086 194.463 14.807 194.793 12.557H191.494V9.889H204.148C204.148 10.668 203.759 15.286 203.759 15.946C203.609 18.645 202.859 19.275 200.13 19.514L198.601 19.635L197.701 16.786L198.901 16.726C200.49 16.636 200.97 16.186 201.06 14.987C201.09 14.267 201.09 13.367 201.18 12.557H197.312C196.922 15.017 196.292 17.746 193.293 21.044H203.789V30.13H192.484V21.044H192.664L191.374 19.695V20.984H188.405V24.733H191.614V27.491H188.405V31.839C189.335 32.049 190.474 32.199 191.854 32.229ZM195.063 27.551H201.06V23.623H195.063V27.551ZM168.839 19.965C166.171 20.084 157.205 20.504 154.776 20.744L153.996 17.836C154.925 17.505 155.105 17.235 155.675 16.666C156.875 15.316 159.604 11.028 160.803 8.179L163.622 9.499C162.182 12.198 160.083 15.797 158.614 17.565L167.25 17.176C166.32 15.616 165.331 14.087 164.581 13.037L167.01 11.388C168.599 13.547 170.789 17.176 172.228 19.725L169.679 21.553C169.439 21.074 169.169 20.534 168.839 19.965ZM147.879 11.508L149.498 9.019C150.937 9.889 153.846 12.078 155.136 13.187L153.516 15.826C152.167 14.566 149.318 12.407 147.879 11.508ZM153.516 20.024L151.837 22.813C150.307 21.344 147.668 19.334 146.229 18.375L147.939 15.856C149.438 16.816 151.987 18.735 153.516 20.024ZM138.298 35.768C134.94 33.729 131.461 31.779 127.623 29.77C125.254 32.439 121.416 34.148 114.759 36.067L113.649 32.919C121.056 30.94 124.744 29.44 126.424 26.082H113.589V23.263H122.975C121.056 21.824 117.488 19.544 115.238 18.105L116.708 15.466C119.197 17.056 122.225 18.975 124.384 20.474L123.005 23.263H127.383C127.743 21.584 127.833 19.665 127.923 17.176C127.923 15.737 128.043 10.398 128.043 8.75L131.042 8.869C131.042 10.638 131.011 16.156 130.922 17.595C130.832 19.755 130.712 21.584 130.382 23.263H139.138V26.082H129.692C129.542 26.531 129.422 26.921 129.212 27.311C132.9 29.14 136.289 30.88 139.498 32.649L138.298 35.768ZM117.277 12.138L118.837 9.529C121.896 11.538 123.605 12.587 126.093 14.446L124.714 17.265C122.525 15.616 119.916 13.817 117.277 12.138ZM101.31 28.961L103.379 27.551C104.489 28.901 106.558 31.66 107.517 33.338L105.418 35.078C104.429 33.368 102.42 30.28 101.31 28.961ZM99.901 12.888C99.691 13.577 99.481 14.446 99.211 15.256H104.818V26.531H100.021V32.109C100.021 34.748 99.151 35.287 96.662 35.528L95.193 35.648L94.323 32.889L95.702 32.769C97.052 32.679 97.202 32.409 97.202 30.97V26.531H92.284V15.256H96.332C96.602 14.387 96.842 13.547 97.052 12.678H90.695V19.905C90.695 27.281 89.915 30.97 87.336 36.037L84.637 34.778C87.276 29.74 87.876 26.531 87.876 19.994V9.889H106.438V12.678H98.671L99.901 12.888ZM95.073 24.103H102.03V22.093H95.073V24.103ZM95.073 17.656V19.755H102.03V17.656H95.073ZM81.159 11.178L82.778 9.049C84.128 9.919 86.376 11.748 87.576 12.858L85.957 15.436C84.817 14.237 82.538 12.228 81.159 11.178ZM86.647 19.665L85.027 22.153C83.708 20.744 81.429 18.735 80.049 17.776L81.519 15.586C82.958 16.545 85.327 18.405 86.647 19.665ZM68.49 33.849H49.059V13.877L52.027 13.997V30.85H58.834V8.989L61.713 9.109V30.85H68.49V13.877L71.459 13.997V35.287H68.49V33.849ZM32.881 35.648H30.212V29.53H23.975V23.953L22.925 25.812C22.446 25.332 21.366 24.432 20.377 23.623V35.588H17.678V24.643C16.748 25.872 15.788 27.011 14.739 28.061L13 25.542C15.878 22.633 18.007 19.635 19.387 16.486H14.679V13.427H17.768C17.438 12.048 16.958 10.249 16.718 9.289L19.447 8.959C19.777 9.949 20.227 11.898 20.557 13.427H22.506V16.456C21.936 17.746 21.306 19.005 20.617 20.234C21.546 20.924 23.105 22.213 23.975 23.023V12.497H30.212V8.539L32.881 8.659V12.497H39.088V29.53H32.881V35.648ZM30.212 15.286H26.524V19.484H30.212V15.286ZM30.212 22.273H26.524V26.712H30.212V22.273ZM36.539 15.286H32.881V19.484H36.539V15.286ZM36.539 26.712V22.273H32.881V26.712H36.539ZM86.017 24.402C85.777 25.602 83.528 34.478 83.288 35.437L80.529 34.688C81.009 33.398 83.048 25.242 83.288 23.713L86.017 24.402ZM95.463 28.841C94.353 30.91 92.584 33.488 91.144 35.257L89.106 33.579C90.665 31.69 92.254 29.56 93.243 27.521L95.463 28.841ZM153.756 25.392C153.156 27.221 150.577 34.088 149.828 35.708L146.889 34.508C147.728 32.859 150.338 26.112 150.937 24.222L153.756 25.392ZM170.369 35.648H167.34V34.268H158.524V35.618H155.495V23.173H170.369V35.648ZM167.34 25.992H158.524V31.419H167.34V25.992ZM268.829 35.678H265.77V34.388H252.067V35.678H249.038V22.903H268.829V35.678ZM265.77 25.812H252.067V31.57H265.77V25.812Z" fill="url(#paint9_linear_99_15250)"/>
<defs>
<linearGradient id="paint0_linear_99_15250" x1="1244" y1="0" x2="1847.1" y2="0" gradientUnits="userSpaceOnUse">
<stop offset="0.1875" stop-color="#5A8FFF" stop-opacity="0.3"/>
<stop offset="0.635417" stop-color="#B06AFF"/>
</linearGradient>
<linearGradient id="paint1_linear_99_15250" x1="372.999" y1="0" x2="1231" y2="0" gradientUnits="userSpaceOnUse">
<stop offset="0.00934921" stop-color="#6090F5" stop-opacity="0"/>
<stop offset="0.72" stop-color="#B06AFF"/>
</linearGradient>
<linearGradient id="paint2_linear_99_15250" x1="514.999" y1="21" x2="940.999" y2="21" gradientUnits="userSpaceOnUse">
<stop stop-color="#5A8FFF"/>
<stop offset="0.72" stop-color="#B06AFF"/>
</linearGradient>
<linearGradient id="paint3_linear_99_15250" x1="-140" y1="21" x2="301.999" y2="21" gradientUnits="userSpaceOnUse">
<stop stop-color="#ED6390"/>
<stop offset="1" stop-color="#615CBD"/>
</linearGradient>
<linearGradient id="paint4_linear_99_15250" x1="-140" y1="21" x2="512" y2="21" gradientUnits="userSpaceOnUse">
<stop stop-color="#0E8EB7"/>
<stop offset="1" stop-color="#2391F1"/>
</linearGradient>
<linearGradient id="paint5_linear_99_15250" x1="593" y1="15.0051" x2="1437" y2="15.0051" gradientUnits="userSpaceOnUse">
<stop offset="0.225679" stop-color="#447DE5"/>
<stop offset="1" stop-color="#447DE5" stop-opacity="0"/>
</linearGradient>
<linearGradient id="paint6_linear_99_15250" x1="355" y1="25" x2="398.999" y2="25" gradientUnits="userSpaceOnUse">
<stop stop-color="#ED6390"/>
<stop offset="1" stop-color="#615CBD"/>
</linearGradient>
<linearGradient id="paint7_linear_99_15250" x1="308.999" y1="30" x2="339.999" y2="30" gradientUnits="userSpaceOnUse">
<stop stop-color="#ED6390"/>
<stop offset="1" stop-color="#615CBD"/>
</linearGradient>
<linearGradient id="paint8_linear_99_15250" x1="293.999" y1="14" x2="323.999" y2="14" gradientUnits="userSpaceOnUse">
<stop stop-color="#ED6390"/>
<stop offset="1" stop-color="#615CBD"/>
</linearGradient>
<linearGradient id="paint9_linear_99_15250" x1="13" y1="36.067" x2="13" y2="8" gradientUnits="userSpaceOnUse">
<stop stop-color="#5160BB"/>
<stop offset="0.36" stop-color="#5D97DD"/>
<stop offset="1" stop-color="#69CEFF"/>
</linearGradient>
</defs>
</svg>
