<svg xmlns="http://www.w3.org/2000/svg" width="30" height="30" viewBox="0 0 30 30" fill="currentColor">
  <path id="形状_2930" data-name="形状 2930" class="cls-1"
    d="M1781.34,1025a2.186,2.186,0,0,0-2.34,1.97v13.78a2.179,2.179,0,0,0,2.34,1.96h9.98v3.32h-6.83a1.227,1.227,0,0,0-1.23.84,1.017,1.017,0,0,0,.96,1.12,1.477,1.477,0,0,0,.21.01h16.08a1.236,1.236,0,0,0,1.23-.84,1.017,1.017,0,0,0-.96-1.12,1.477,1.477,0,0,0-.21-0.01h-6.9v-3.32h9.98a2.188,2.188,0,0,0,2.35-1.96v-13.78a2.2,2.2,0,0,0-2.35-1.97h-22.31Zm18.79,9.84h-3.88l-1.34,3.35a0.532,0.532,0,0,1-.83.1l-4.22-4.93-0.53,1.14a0.525,0.525,0,0,1-.53.29h-4.46a1.24,1.24,0,0,1-1.24-.84,1,1,0,0,1,.96-1.11,1.8,1.8,0,0,1,.22-0.02h3.29l1.35-2.85a0.516,0.516,0,0,1,.82-0.1l4.11,4.72,0.58-1.47a0.569,0.569,0,0,1,.53-0.35h5.05a1.227,1.227,0,0,1,1.23.84,0.99,0.99,0,0,1-1.11,1.23h0Z"
    transform="translate(-1777.5 -1021.5)" />
</svg>
