<svg xmlns="http://www.w3.org/2000/svg" xmlns:xlink="http://www.w3.org/1999/xlink" width="25px" height="25px">
  <path fill-rule="evenodd" fill="rgb(61, 179, 244)"
    d="M24.613,24.438 C24.308,24.796 23.864,25.000 23.392,25.000 L1.603,25.000 C1.131,25.000 0.687,24.796 0.381,24.438 C0.076,24.082 -0.056,23.611 0.019,23.145 L1.276,15.315 C1.433,14.330 2.271,13.616 3.268,13.616 L5.164,13.616 C5.599,13.616 5.951,13.969 5.951,14.403 C5.951,14.837 5.599,15.188 5.164,15.188 L3.272,15.188 C3.054,15.188 2.869,15.346 2.834,15.562 L1.578,23.394 C1.578,23.400 1.575,23.409 1.584,23.418 C1.590,23.428 1.600,23.428 1.606,23.428 L23.398,23.428 C23.401,23.428 23.410,23.428 23.420,23.418 C23.429,23.406 23.426,23.400 23.426,23.394 L22.170,15.562 C22.135,15.346 21.953,15.188 21.732,15.188 L19.837,15.188 C19.402,15.188 19.049,14.837 19.049,14.403 C19.049,13.969 19.402,13.616 19.837,13.616 L21.732,13.616 C22.730,13.616 23.568,14.330 23.725,15.315 L24.981,23.145 C25.054,23.607 24.921,24.079 24.613,24.438 ZM14.953,18.585 C13.983,19.635 13.202,20.126 12.500,20.126 C11.798,20.126 11.017,19.635 10.048,18.585 C9.289,17.765 8.445,16.610 7.670,15.343 C7.003,14.242 4.818,10.443 4.818,7.673 C4.818,5.623 5.617,3.698 7.069,2.248 C8.520,0.798 10.448,-0.000 12.497,-0.000 C14.547,-0.000 16.477,0.798 17.929,2.248 C19.380,3.698 20.180,5.623 20.180,7.673 C20.180,10.443 17.998,14.245 17.327,15.343 C16.556,16.613 15.712,17.765 14.953,18.585 ZM18.609,7.673 C18.609,4.308 15.869,1.572 12.500,1.572 C9.131,1.572 6.392,4.308 6.392,7.673 C6.392,8.453 6.647,9.525 7.132,10.771 C7.588,11.940 8.222,13.210 8.964,14.440 C9.673,15.613 10.444,16.679 11.131,17.440 C12.034,18.440 12.450,18.547 12.500,18.556 C12.551,18.547 12.966,18.440 13.870,17.440 C14.559,16.679 15.328,15.613 16.036,14.440 C16.779,13.208 17.412,11.940 17.869,10.771 C18.354,9.525 18.609,8.453 18.609,7.673 ZM12.500,11.321 C10.687,11.321 9.210,9.846 9.210,8.034 C9.210,6.223 10.687,4.748 12.500,4.748 C14.314,4.748 15.791,6.223 15.791,8.034 C15.791,9.846 14.314,11.321 12.500,11.321 ZM12.500,6.320 C11.552,6.320 10.784,7.088 10.784,8.034 C10.784,8.981 11.552,9.748 12.500,9.748 C13.448,9.748 14.216,8.981 14.216,8.034 C14.216,7.088 13.448,6.320 12.500,6.320 Z" />
</svg>
