<svg xmlns="http://www.w3.org/2000/svg" width="25" height="25" viewBox="0 0 25 25">
  <defs>
    <style>
      .cls-1 {
        fill: #1ea9f1;
        fill-rule: evenodd;
      }
    </style>
  </defs>
  <path id="密码" class="cls-1" d="M3674.45,928.66h-10c0.17-1.315-1.07-6.659,3.53-6.79,4.38-.15,3.7,4.877,3.7,4.877l2.14,0.014s0.63-6.73-5.84-6.762c-7.06.324-5.4,7.62-5.62,8.661h0.19a2.44,2.44,0,0,0-2.55,2.314v7.712a2.439,2.439,0,0,0,2.55,2.313h11.9a2.44,2.44,0,0,0,2.55-2.313v-7.712A2.44,2.44,0,0,0,3674.45,928.66Zm-5.1,6.727v1.756a0.854,0.854,0,0,1-1.7,0v-1.756a1.511,1.511,0,0,1-.85-1.328,1.708,1.708,0,0,1,3.4,0A1.53,1.53,0,0,1,3669.35,935.387Z" transform="translate(-3656 -918)"/>
</svg>
