<svg xmlns="http://www.w3.org/2000/svg" width="30" height="30" fill="currentColor" viewBox="0 0 30 30">
  <path id="形状_2928" data-name="形状 2928" class="cls-1"
    d="M1803.62,1760a3.559,3.559,0,0,1,2.38-3.32,12.825,12.825,0,0,0-1.51-3.52,3.83,3.83,0,0,1-4.13-.73,3.464,3.464,0,0,1-.75-3.97,14.076,14.076,0,0,0-3.66-1.46,3.744,3.744,0,0,1-6.9,0,14.076,14.076,0,0,0-3.66,1.46,3.464,3.464,0,0,1-.75,3.97,3.83,3.83,0,0,1-4.13.73,12.825,12.825,0,0,0-1.51,3.52,3.506,3.506,0,0,1,0,6.64,12.825,12.825,0,0,0,1.51,3.52,3.83,3.83,0,0,1,4.13.73,3.464,3.464,0,0,1,.75,3.97,14.076,14.076,0,0,0,3.66,1.46,3.744,3.744,0,0,1,6.9,0,14.076,14.076,0,0,0,3.66-1.46,3.464,3.464,0,0,1,.75-3.97,3.83,3.83,0,0,1,4.13-.73,12.825,12.825,0,0,0,1.51-3.52A3.559,3.559,0,0,1,1803.62,1760Zm-11.12,3.57a3.573,3.573,0,1,1,3.71-3.57A3.642,3.642,0,0,1,1792.5,1763.57Z"
    transform="translate(-1777.5 -1745)" />
</svg>
