<svg xmlns="http://www.w3.org/2000/svg" width="30" height="30" fill="currentColor" viewBox="0 0 30 30">
  <path id="形状_2932" data-name="形状 2932" class="cls-1"
    d="M1802.36,1146h-19.72a2.587,2.587,0,0,0-2.64,2.51v16.98a2.587,2.587,0,0,0,2.64,2.51h19.72a2.587,2.587,0,0,0,2.64-2.51v-16.98A2.587,2.587,0,0,0,1802.36,1146Zm-2.17,8.67-2.29,5.22a1.9,1.9,0,0,1,.63,1.41,2.068,2.068,0,0,1-4.13,0,1.766,1.766,0,0,1,.15-0.73l-4.21-4a2.242,2.242,0,0,1-.52.06,2.191,2.191,0,0,1-.77-0.14l-2.19,2.36a1.913,1.913,0,0,1,.06.48,2.068,2.068,0,1,1-2.06-1.96,2.122,2.122,0,0,1,1.09.3l2-2.17a1.943,1.943,0,0,1-.19-0.83,2.067,2.067,0,0,1,4.13,0,1.878,1.878,0,0,1-.32,1.04l4.01,3.81a2.1,2.1,0,0,1,.88-0.19h0.05l2.26-5.16a1.928,1.928,0,0,1-.69-1.47A2.062,2.062,0,1,1,1800.19,1154.67Z"
    transform="translate(-1777.5 -1142)" />
</svg>
