<svg xmlns="http://www.w3.org/2000/svg" width="30" height="30" fill="currentColor" viewBox="0 0 30 30">
  <path id="源头站点" class="cls-1"
    d="M1806,1570.3a0.7,0.7,0,0,0-.43-0.66l-5.87-2.41-0.1-.03v-6.89a0.607,0.607,0,0,0-.12-0.37,0.1,0.1,0,0,0-.01-0.03v-0.02l-0.02-.01v-0.02a0.673,0.673,0,0,0-.14-0.11,1.5,1.5,0,0,0-.18-0.09l-6.31-2.62a1.071,1.071,0,0,0-.58,0l-6.35,2.62a0.315,0.315,0,0,0-.17.09,0.664,0.664,0,0,0-.33.57v6.89l-0.09.03-5.87,2.42a0.38,0.38,0,0,0-.18.13,0.668,0.668,0,0,0-.25.52v7.36a0.711,0.711,0,0,0,.45.66l6.38,2.62a0.929,0.929,0,0,0,.29.05h0.09a0.492,0.492,0,0,0,.2-0.05h0.02l0.03-.01,5.98-2.46,0.04-.02,0.05,0.02,6.04,2.47a1.04,1.04,0,0,0,.29.05h0.07a1.223,1.223,0,0,0,.17-0.03h0.01l0.03-.02,6.29-2.6a0.706,0.706,0,0,0,.54-0.68Zm-19.83,1.65-0.05.01-0.05-.01-4.07-1.55-0.3-.12,0.3-.12,4.07-1.69,0.05-.01,0.05,0.01,4.11,1.69,0.29,0.12-0.29.12-0.78.28Zm5.6-.42h0v5.67l-0.09.03-4.65,1.91-0.17.06v-6.02l0.09-.03,2.21-.83,2.44-.92,0.17-.06v0.19Zm0.79-9.57-0.04.01-0.05-.01-0.2-.08-3.91-1.48-0.29-.12,0.29-.12,4.09-1.69,0.05-.02,0.05,0.02,4.09,1.69,0.29,0.12-0.29.12-3.91,1.48Zm0.7,7.3v-6.04l0.09-.03,4.65-1.75,0.15-.06v5.82l-0.09.03-4.63,1.94Zm5.7,2.67-0.05.02-0.05-.02-0.18-.06-3.91-1.48-0.29-.12,0.29-.12,4.12-1.69,0.05-.02,0.05,0.02,4.07,1.69,0.3,0.12-0.31.12-3.91,1.48Zm0.64,7.27v-6.02l0.1-.03,2.21-.83,2.44-.92,0.17-.06v5.83l-4.75,1.97Z"
    transform="translate(-1777.5 -1554)" />
</svg>
