<svg xmlns="http://www.w3.org/2000/svg" xmlns:xlink="http://www.w3.org/1999/xlink" viewBox="0 0 108.28 108.28"><defs><style>.cls-1{fill:none;}.cls-2{isolation:isolate;}.cls-3{fill:url(#未命名的渐变_5);}.cls-4{opacity:0.75;mix-blend-mode:multiply;}.cls-5{fill:#9c8ff2;}.cls-6{fill:#fffffd;}.cls-7{clip-path:url(#clip-path);}.cls-8{fill:url(#未命名的渐变_16);}.cls-9{clip-path:url(#clip-path-2);}.cls-10{fill:url(#未命名的渐变_36);}</style><linearGradient id="未命名的渐变_5" x1="53.47" y1="0.52" x2="54.81" y2="108.08" gradientUnits="userSpaceOnUse"><stop offset="0" stop-color="#4c9aff"/><stop offset="1" stop-color="#6a7bff"/></linearGradient><clipPath id="clip-path"><path class="cls-1" d="M61.63,76.1a.24.24,0,0,0,.14-.43,19.62,19.62,0,0,1-2-1.59,22.16,22.16,0,0,1-4-5l-24.46,0a11.11,11.11,0,0,1-3.56-21.55,10.65,10.65,0,0,1,3.63-.63,10.84,10.84,0,0,1,1.62.12,1.32,1.32,0,0,0,1.53-1.44,10.39,10.39,0,0,1-.08-1.37,11.28,11.28,0,0,1,.69-3.91,11.13,11.13,0,0,1,21.61,3.91L56.5,58.91a18.15,18.15,0,1,0,18.14-19,17.93,17.93,0,0,0-10.86,3.65,18.13,18.13,0,0,0-35.86-3.3,18.1,18.1,0,0,0,3.5,35.83Zm13-6.54A11.31,11.31,0,1,1,85.79,58.25,11.24,11.24,0,0,1,74.64,69.56Z"/></clipPath><linearGradient id="未命名的渐变_16" x1="82.74" y1="41.98" x2="57.14" y2="50.36" gradientUnits="userSpaceOnUse"><stop offset="0.31" stop-color="#fffffd" stop-opacity="0"/><stop offset="0.47" stop-color="#c1d3fe" stop-opacity="0.38"/><stop offset="0.62" stop-color="#8aacfe" stop-opacity="0.71"/><stop offset="0.73" stop-color="#6893ff" stop-opacity="0.92"/><stop offset="0.78" stop-color="#5b8aff"/></linearGradient><clipPath id="clip-path-2"><path class="cls-1" d="M61.69,76.1a.22.22,0,0,0,.12-.4,20.4,20.4,0,0,1-2-1.62,22.16,22.16,0,0,1-4-5l-24.46,0a11.11,11.11,0,0,1-3.56-21.55,10.65,10.65,0,0,1,3.63-.63,10.41,10.41,0,0,1,1.58.12,1.35,1.35,0,0,0,1.56-1.48,11.73,11.73,0,0,1-.07-1.33,11.28,11.28,0,0,1,.69-3.91,11.13,11.13,0,0,1,21.61,3.91L56.5,58.91a18.15,18.15,0,1,0,18.14-19A17.92,17.92,0,0,0,63.89,43.5a.07.07,0,0,1-.12-.06,18.13,18.13,0,0,0-35.85-3.15,18.1,18.1,0,0,0,3.5,35.83Zm13-6.54A11.31,11.31,0,1,1,85.79,58.25,11.24,11.24,0,0,1,74.64,69.56Z"/></clipPath><linearGradient id="未命名的渐变_36" x1="33.87" y1="80.51" x2="59.4" y2="67.49" gradientUnits="userSpaceOnUse"><stop offset="0" stop-color="#fff" stop-opacity="0"/><stop offset="0.18" stop-color="#dee6ff" stop-opacity="0.21"/><stop offset="0.48" stop-color="#a9bdff" stop-opacity="0.54"/><stop offset="0.73" stop-color="#819fff" stop-opacity="0.79"/><stop offset="0.91" stop-color="#698cff" stop-opacity="0.94"/><stop offset="1" stop-color="#6085ff"/></linearGradient></defs><g class="cls-2"><g id="图层_2" data-name="图层 2"><g id="图层_1-2" data-name="图层 1"><rect class="cls-3" width="108.28" height="108.28" rx="23.21"/><g class="cls-4"><path class="cls-5" d="M62.64,78.1a.24.24,0,0,0,.14-.43,19.74,19.74,0,0,1-2-1.59,22.09,22.09,0,0,1-4-4.87.22.22,0,0,0-.2-.11l-24.32,0a11.11,11.11,0,0,1-3.56-21.55,10.65,10.65,0,0,1,3.63-.63,10.51,10.51,0,0,1,3.14.47.23.23,0,0,0,.29-.28,11.42,11.42,0,0,1-.36-2.88,11.28,11.28,0,0,1,.69-3.91,11.13,11.13,0,0,1,21.61,3.91L57.5,60.9v0a18.15,18.15,0,1,0,18.14-19,18,18,0,0,0-10.79,3.59,0,0,0,0,1-.08,0A18.13,18.13,0,0,0,29,42.15a.24.24,0,0,1-.18.17,18.1,18.1,0,0,0,3.65,35.8Zm13-6.54A11.31,11.31,0,1,1,86.79,60.25,11.24,11.24,0,0,1,75.64,71.56Z"/></g><path class="cls-6" d="M61.64,76.1a.24.24,0,0,0,.14-.43,19.74,19.74,0,0,1-2-1.59,22.09,22.09,0,0,1-4-4.87.22.22,0,0,0-.2-.11l-24.32,0a11.11,11.11,0,0,1-3.56-21.55,10.65,10.65,0,0,1,3.63-.63,10.51,10.51,0,0,1,3.14.47.23.23,0,0,0,.29-.28,11.42,11.42,0,0,1-.36-2.88,11.28,11.28,0,0,1,.69-3.91,11.13,11.13,0,0,1,21.61,3.91L56.5,58.9v0a18.15,18.15,0,1,0,18.14-19,18,18,0,0,0-10.79,3.59,0,0,0,0,1-.08,0A18.13,18.13,0,0,0,28,40.15a.24.24,0,0,1-.18.17,18.1,18.1,0,0,0,3.65,35.8Zm13-6.54A11.31,11.31,0,1,1,85.79,58.25,11.24,11.24,0,0,1,74.64,69.56Z"/><g class="cls-7"><polygon class="cls-8" points="76.66 57.2 63.56 57.2 63.96 34.9 76.66 34.9 76.66 57.2"/></g><g class="cls-9"><polygon class="cls-10" points="67.45 78.17 54.97 67.44 31.57 66.89 31.57 79.44 67.45 78.17"/></g></g></g></g></svg>